<?xml version="1.0" encoding="utf-8"?>
<!-- Generator: Adobe Illustrator 23.0.5, SVG Export Plug-In . SVG Version: 6.00 Build 0)  -->
<svg version="1.1" id="Layer_1" xmlns="http://www.w3.org/2000/svg" xmlns:xlink="http://www.w3.org/1999/xlink" x="0px" y="0px"
	 viewBox="0 0 360 360" style="enable-background:new 0 0 360 360;" xml:space="preserve">
<style type="text/css">
	.st0{opacity:0.51;}
	.st1{fill:#009688;}
	.st2{opacity:0.56;}
	.st3{fill:#FFFFFF;}
	.st4{fill:#1FC0CC;}
</style>
<g>
	<g>
		<g>
			<g class="st0">
				<circle class="st1" cx="180.6" cy="215.7" r="112.3"/>
			</g>
			<g class="st2">
				<circle class="st1" cx="180.6" cy="215.7" r="94.2"/>
			</g>
			<g>
				<circle class="st1" cx="180.6" cy="215.7" r="70.4"/>
			</g>
		</g>
		<g>
			<path class="st3" d="M234,252.9c0.1,1.4,0.3,2.7,0.4,3.9c0.3,2.5,0.1,5-0.8,7.4c-0.7,1.9-1.9,3.2-3.7,4.1
				c-3.2,1.5-6.5,2.2-10,1.7c-1.4-0.2-1.7,0.2-1.8,1.5c-0.4,4.7-2.2,8.8-5.7,12.1c-3.1,2.9-6.6,3.6-10.5,1.9c-1.1-0.5-2.1-1-3.4-1.6
				c-0.1,1.1-0.2,2.1-0.3,3.1c-0.5,4.6-2.9,7.3-7.4,8.4c-3.5,0.9-7,0.6-10.5-0.1c-1.7-0.3-3.4-0.8-5.4-1.3c0.6-0.5,1-1,1.4-1.3
				c2.1-1.8,4.2-3.6,6.3-5.3c3.3-2.7,4.4-6,3.2-10c-1.6-5.7-5.4-8.9-11.1-10c-0.3,0-0.5-0.1-0.8-0.1c-0.1,0-0.2-0.1-0.4-0.2
				c0.5-4.5-0.7-8.5-4.5-11.4s-8-3.1-12.5-1.2c0.2-6.4-2.2-11.2-8.2-13.5c-6.1-2.4-11,0.4-15.4,4.7c-0.2-0.8-0.4-1.3-0.5-1.8
				c-1.6-5.6-5-9.6-10.5-11.7c-3.1-1.2-5.8-0.7-8.3,1.5c-2.9,2.5-5.9,5-8.8,7.4c-0.4,0.3-0.8,0.6-1.2,1c-4-3.5-8-7.1-12.2-10.7
				c0.9-1.2,1.7-2.4,2.6-3.5c11.8-15.9,23.7-31.8,35.5-47.7c0.9-1.2,1.7-1.5,3-1.4c6.3,0.4,12.6,0.7,19,1.2c6,0.5,11.9,1.7,17.8,3.5
				c-0.2,0.3-0.3,0.5-0.5,0.6c-6,3.4-11.9,7.1-18.1,10.1c-3.5,1.7-7.4,2.6-11.2,3.6c-3.5,0.9-6.9,2-9.8,4.1
				c-4.3,3.1-5.5,7.7-2.8,12.3c3.6,6.1,9,10.1,16,11.7c6.3,1.4,12.4,0.4,18.2-2.1c4.4-1.9,8.7-4.1,12.7-6.7
				c3.6-2.4,7.4-3.3,11.5-3.3c7.5,0,15,0.3,22.5,0.4c2.4,0,4.9-0.2,7.3-0.2c0.7,0,1.5,0,2.1,0.4c7.3,4.9,14.4,10.1,20.2,16.7
				c3.4,3.9,6.6,8,7.8,13.2c0.4,1.6,0.6,3.4,0.3,4.9c-0.6,3.6-4,5.8-7.7,5.1C236.6,253.7,235.5,253.3,234,252.9z"/>
			<path class="st3" d="M267.3,219.3c-5.7,6.2-11.3,12.4-17.1,18.8c-0.6-1.1-1-1.9-1.5-2.7c-3.7-6.6-8.9-12-14.7-16.8
				c-4.3-3.5-8.9-6.7-13.4-10c-0.4-0.3-1-0.4-1.5-0.3c-4.7,1.3-9.6,1.1-14.4,1.1c-7.5,0-14.9-0.2-22.4-0.1
				c-3.7,0.1-7.2,1.4-10.4,3.5c-5.4,3.6-11.1,6.8-17.6,8.3c-9,2.1-16.6-0.1-22.6-7.5c-0.3-0.4-0.5-0.7-0.8-1.1
				c-2-3.1-1.5-5.9,1.7-7.7c2.5-1.3,5.2-2.5,7.9-3c6.4-1.3,12.2-3.8,17.8-7c6.7-3.9,13.4-7.9,20.3-11.5c8.3-4.5,17.3-5.9,26.7-5.2
				c3.2,0.2,6.3,0.5,9.5,0.5c6,0.1,11.8-1,17.1-3.9c1.1-0.6,1.7-0.5,2.5,0.6c10.5,14.3,21.1,28.5,31.7,42.7
				C266.6,218.3,266.9,218.7,267.3,219.3z"/>
			<path class="st3" d="M312.8,199.5c-0.3,1.7-1,2.9-2.2,3.9c-7.8,5.8-15.6,11.7-23.4,17.4c-2.9,2.1-5.4,1.5-7.8-1.6
				c-13.7-18.4-27.4-36.9-41.1-55.3c-0.6-0.8-1.2-1.6-1.8-2.4c-2.2-3.1-1.8-6,1.3-8.3c5.4-4,10.9-8.1,16.4-12.1
				c2-1.5,3.9-2.9,5.9-4.4c3-2.2,5.7-1.8,7.9,1.1c13,17.5,26,34.9,39,52.4c1.5,2,3,3.9,4.4,6C312,197.2,312.3,198.4,312.8,199.5z
				 M247.5,155.6c0,3.1,2.4,5.6,5.4,5.6s5.6-2.5,5.6-5.5c0.1-3-2.5-5.7-5.6-5.7C250,150.1,247.5,152.6,247.5,155.6z M267.5,167.6
				c0-3.1-2.5-5.5-5.5-5.5s-5.5,2.5-5.6,5.5c0,3.1,2.6,5.6,5.7,5.5C265.2,173.2,267.5,170.8,267.5,167.6z"/>
			<path class="st3" d="M126,166.8c-0.6,1.1-1,2.4-1.8,3.4c-6.6,8.9-13.2,17.7-19.7,26.6c-7.6,10.2-15.2,20.4-22.8,30.6
				c-0.3,0.4-0.5,0.7-0.8,1.1c-2,2.6-4.6,2.9-7.2,1c-5.3-4-10.7-7.9-16-11.9c-2.1-1.6-4.3-3.2-6.4-4.8c-3.3-2.4-3.7-4.8-1.2-8.1
				c9.2-12.4,18.4-24.7,27.5-37c5.1-6.9,10.3-13.8,15.4-20.7c2.4-3.2,4.8-3.6,8.1-1.1c7.4,5.5,14.9,11.1,22.3,16.6
				c1.4,1.1,2.4,2.3,2.3,4.2C125.8,166.6,125.9,166.7,126,166.8z M104.5,176.6c0-3.1-2.4-5.7-5.5-5.7c-3.1-0.1-5.8,2.5-5.8,5.6
				s2.6,5.7,5.7,5.7C102,182.2,104.5,179.7,104.5,176.6z M113.5,164.5c0.1-3-2.5-5.7-5.5-5.7c-3.1,0-5.7,2.5-5.8,5.6
				c-0.1,3.1,2.6,5.7,5.7,5.7C110.9,170.1,113.5,167.6,113.5,164.5z"/>
			<path class="st3" d="M123.7,278.2c-4,0.1-6.8-1.9-8.1-4.9c-1.3-3.1-0.7-6.8,1.8-9.1c1.5-1.4,3.2-2.7,4.7-4
				c5.5-4.6,10.9-9.2,16.4-13.8c4.8-3.9,11.6-2,13.2,3.8c1,3.5,0,6.4-2.8,8.8c-3.9,3.3-7.7,6.5-11.6,9.8c-2.9,2.4-5.8,4.8-8.6,7.3
				C127.1,277.5,125.1,278.2,123.7,278.2z"/>
			<path class="st3" d="M161.4,257.4c3.6,0,6.2,1.7,7.3,4.4c1.3,3.2,0.7,6.2-1.8,8.4c-6.6,5.6-13.2,11.2-19.8,16.7
				c-3,2.5-7.6,1.9-10.1-1.1s-2.3-7.4,0.6-10.1c3-2.7,6.2-5.3,9.3-7.9c3.4-2.9,6.8-5.7,10.2-8.6C158.4,258.1,160,257.4,161.4,257.4z
				"/>
			<path class="st3" d="M102.8,249.5c0.5-0.9,0.9-2,1.7-2.6c4-3.5,8-6.9,12.1-10.2c1-0.8,2.1-1.1,3.4-0.7c4.1,1.2,7.8,5.4,8.4,9.6
				c0.2,1.6-0.2,2.8-1.5,3.8c-3.9,3.3-7.8,6.6-11.7,9.9c-1.1,1-2.3,1.3-3.8,0.9C107.2,258.9,103.2,253.9,102.8,249.5z"/>
			<path class="st3" d="M181.9,280.2c0,1.3-0.5,2.5-1.6,3.4c-4.5,3.8-8.9,7.5-13.4,11.3c-1.5,1.2-3.2,1.4-5,0.8
				c-3.2-1.1-5.8-4.5-5.9-7.9c-0.1-1.5,0.4-2.7,1.6-3.7c4.5-3.7,8.9-7.5,13.4-11.3c1.3-1.1,2.7-1.3,4.3-1
				C178.8,272.6,181.9,276.5,181.9,280.2z"/>
		</g>
	</g>
	<g>
		<g>
			<path class="st1" d="M95.9,101.8c1.2,0.2,2.2,0.5,3,0.9s1.5,1,2.2,1.7c1.9,2.2,2.6,5,2.2,8.2s-2,5.9-4.7,8.2l-11.3,9.6
				l-22.9-27.1l11.5-9.8c2.2-1.8,4.5-2.8,7.1-2.8s4.6,0.8,6.1,2.6c0.6,0.7,1,1.3,1.2,1.9c0.2,0.5,0.4,1.3,0.5,2.2
				c0.1,0.8-0.1,1.7-0.4,2.9c-0.2,0.9-0.4,1.5-0.5,1.9l1.3-0.3c1.2-0.2,2.1-0.4,2.6-0.4C94.3,101.6,95,101.7,95.9,101.8z
				 M79.1,108.5l3.5-3c0.9-0.8,1.5-1.7,1.6-2.8c0.2-1.1-0.1-2-0.7-2.8c-0.6-0.7-1.4-1.1-2.4-1.2s-1.9,0.2-2.7,0.9l-4,3.4L79.1,108.5
				z M89.1,120.3l3.4-2.9c1.4-1.2,2.4-2.6,2.9-4.1c0.5-1.6,0.3-2.9-0.6-3.9s-2-1.5-3.6-1.3c-1.5,0.1-2.9,0.7-4.2,1.8l-3.9,3.3
				L89.1,120.3z"/>
			<path class="st1" d="M129.6,92.8l3.1,6.6c-2,2.1-4.2,3.8-6.7,4.9c-3.7,1.8-7.7,2.3-11.9,1.6c-2.6-0.4-4.8-1.2-6.4-2.3
				c-1.6-1.1-2.9-2.8-3.9-4.9c-1.7-3.5-1.5-7.2,0.5-11.2s5.2-7,9.5-9.1c4.5-2.1,8.9-2.7,13.3-1.8c4.4,0.9,7.4,3.1,9.1,6.7l5.8,12.3
				l-7,3.3l-5.9-12.5c-0.9-2-2.7-3.2-5.2-3.7s-5-0.1-7.6,1.1s-4.4,2.9-5.5,5.2c-1.1,2.3-1.2,4.4-0.2,6.5s2.7,3.5,5.3,4.1
				c2.5,0.6,5.1,0.4,7.7-0.9c1.6-0.7,2.8-1.6,3.8-2.5C128.2,95.4,129,94.2,129.6,92.8z"/>
			<path class="st1" d="M153.9,93.7l-8.1,1.7l-3.3-15c-0.5-2.3-0.4-4.4,0.3-6.3s2-3.7,4.1-5.5c1.2-1.1,2.4-1.9,3.6-2.5
				c1.2-0.6,2.5-1.1,3.9-1.4c0.4-0.1,0.8-0.2,1.3-0.2c0.5-0.1,1.1-0.1,1.8-0.2l1.3,6.1c-0.8,0-1.5,0.1-2.3,0.2
				c-1.5,0.3-2.8,1-4.1,2.1c-0.9,0.8-1.5,1.6-1.9,2.5s-0.5,1.8-0.2,2.7L153.9,93.7z"/>
			<path class="st1" d="M164.2,56l7.4-0.5l0.5,7.1l5.1-0.3l0.4,6.2l-5.1,0.3l0.8,11.7c0,0.6,0.2,1.2,0.5,1.6
				c0.3,0.5,0.8,0.9,1.4,1.4c1.2,0.9,2.6,1.2,4.2,1.1c0.5,0,0.9-0.1,1.2-0.1l0.4,5.7c-0.2,0-0.4,0-0.7,0c-0.2,0-0.4,0-0.5,0
				c-1.3,0.1-2.6,0-3.9-0.2c-1.6-0.3-3.3-0.9-5.3-1.8c-1.2-0.6-2.2-1.5-3.1-2.8c-1-1.4-1.6-2.9-1.7-4.4L164.2,56z"/>
			<path class="st1" d="M213.3,77.5c-0.4-2-1.4-3.6-3-4.9s-3.7-2.1-6.2-2.5c-2.7-0.4-5.2,0.1-7.5,1.3c-2.2,1.3-3.5,3-3.8,5.1
				c-0.1,0.4-0.1,0.7-0.1,0.8c0,2.4,0.9,4.3,2.9,6c1.7,1.5,3.8,2.4,6.4,2.7c1.5,0.2,2.9,0.2,4.2,0s2.5-0.7,3.5-1.4l4.4,4.8
				c-2,1.2-4,2-6,2.4s-4.3,0.4-6.9,0c-4.8-0.7-8.7-2.6-11.8-5.7s-4.3-6.6-3.8-10.4s2.7-6.9,6.4-9.1s8-3,12.7-2.3
				c4.8,0.7,8.8,2.7,12,6.1s4.5,6.9,4,10.7c-0.1,0.4-0.1,0.8-0.2,1.2c-0.1,0.3-0.2,0.6-0.3,0.7l-24.6-3.5c-0.5-0.1-0.8-0.3-0.9-0.7
				c-0.1-0.4-0.1-0.9,0-1.5c0-0.3,0.1-0.4,0.1-0.6c0-0.3,0.1-0.5,0.1-0.7c0.1-0.4,0.2-0.8,0.3-1s0.4-0.3,0.9-0.2L213.3,77.5z"/>
			<path class="st1" d="M228.8,98.7l-7.7-2.9l5.4-14.4c0.8-2.2,2-3.9,3.7-5.1c1.6-1.2,3.7-2,6.4-2.4c1.6-0.2,3.1-0.3,4.4-0.1
				c1.3,0.1,2.7,0.5,4.1,1c0.4,0.1,0.8,0.3,1.3,0.5s1,0.5,1.6,0.8l-2.2,5.8c-0.6-0.4-1.3-0.8-2.1-1c-1.4-0.5-3-0.7-4.6-0.4
				c-1.2,0.2-2.1,0.5-2.9,1.1c-0.8,0.5-1.3,1.2-1.7,2.2L228.8,98.7z"/>
		</g>
		<path class="st4" d="M257.9,73l7.3,3.9l-16.6,31.3l-7.3-3.9L257.9,73z"/>
		<path class="st4" d="M273.4,81l20.9,15.7l-3.7,4.9l-7.3-5.5l-17.6,23.4l-6.6-4.9l17.6-23.4l-7.1-5.3L273.4,81z"/>
	</g>
</g>
</svg>
