<?xml version="1.0" encoding="utf-8"?>
<!-- Generator: Adobe Illustrator 23.0.5, SVG Export Plug-In . SVG Version: 6.00 Build 0)  -->
<svg version="1.1" xmlns="http://www.w3.org/2000/svg" xmlns:xlink="http://www.w3.org/1999/xlink" x="0px" y="0px"
	 viewBox="0 0 457.1 457.1" style="enable-background:new 0 0 457.1 457.1;" xml:space="preserve">
<style type="text/css">
	.st0{opacity:0.51;}
	.st1{fill:#1FC0CC;}
	.st2{opacity:0.56;}
	.st3{fill:#FFFFFF;}
</style>
<g id="Layer_2">
</g>
<g id="Layer_1">
	<g>
		<g>
			<g class="st0">
				<circle class="st1" cx="228.5" cy="261" r="152.5"/>
			</g>
			<g class="st2">
				<circle class="st1" cx="228.5" cy="261" r="127.8"/>
			</g>
			<g>
				<circle class="st1" cx="228.5" cy="261" r="95.6"/>
			</g>
		</g>
		<g>
			<path class="st3" d="M301,311.6c0.2,1.9,0.3,3.6,0.5,5.3c0.4,3.4,0.1,6.7-1.1,10c-0.9,2.5-2.6,4.4-5.1,5.6
				c-4.3,2.1-8.9,3-13.6,2.3c-1.9-0.3-2.3,0.3-2.5,2c-0.5,6.4-3,12-7.7,16.5c-4.2,4-8.9,4.9-14.2,2.5c-1.5-0.6-2.9-1.3-4.6-2.1
				c-0.2,1.5-0.3,2.8-0.5,4.2c-0.7,6.2-3.9,9.9-10,11.4c-4.8,1.2-9.5,0.8-14.3-0.2c-2.3-0.5-4.6-1.1-7.4-1.8
				c0.8-0.7,1.3-1.3,1.9-1.8c2.9-2.4,5.7-4.9,8.6-7.2c4.5-3.6,5.9-8.1,4.3-13.6c-2.2-7.7-7.3-12.1-15.1-13.5
				c-0.4-0.1-0.7-0.1-1.1-0.2c-0.1,0-0.2-0.1-0.5-0.3c0.7-6.1-0.9-11.6-6.1-15.5c-5.2-3.9-10.8-4.2-16.9-1.6
				c0.3-8.7-3-15.2-11.2-18.3c-8.3-3.2-14.9,0.5-20.9,6.4c-0.3-1-0.5-1.7-0.7-2.4c-2.1-7.7-6.8-13.1-14.3-15.9
				c-4.2-1.6-7.9-1-11.3,2c-3.9,3.4-8,6.7-12,10.1c-0.5,0.4-1,0.8-1.7,1.3c-5.5-4.8-10.9-9.6-16.5-14.5c1.2-1.7,2.4-3.3,3.5-4.8
				c16.1-21.6,32.2-43.1,48.2-64.8c1.2-1.6,2.2-2,4.1-1.9c8.6,0.6,17.2,0.9,25.7,1.6c8.1,0.6,16.1,2.2,24.2,4.7
				c-0.3,0.4-0.4,0.6-0.6,0.8c-8.2,4.6-16.2,9.6-24.6,13.8c-4.7,2.3-10,3.5-15.2,4.9c-4.7,1.2-9.3,2.7-13.3,5.6
				c-5.9,4.2-7.4,10.4-3.7,16.7c4.9,8.3,12.2,13.7,21.7,15.8c8.5,2,16.8,0.5,24.7-2.9c5.9-2.6,11.8-5.6,17.2-9.1
				c4.9-3.2,10.1-4.5,15.7-4.5c10.2,0,20.4,0.4,30.6,0.5c3.3,0,6.6-0.3,9.9-0.3c0.9,0,2.1,0,2.8,0.5c9.9,6.7,19.5,13.7,27.5,22.7
				c4.7,5.3,8.9,10.9,10.6,17.9c0.5,2.2,0.8,4.5,0.4,6.7c-0.8,4.9-5.5,7.8-10.5,7C304.6,312.6,303,312.1,301,311.6z"/>
			<path class="st3" d="M346.1,265.9c-7.7,8.5-15.4,16.9-23.2,25.5c-0.8-1.5-1.4-2.6-2-3.7c-5.1-9-12-16.3-19.9-22.7
				c-5.8-4.8-12-9.1-18.1-13.6c-0.5-0.4-1.4-0.6-2-0.4c-6.4,1.8-13,1.5-19.6,1.5c-10.1,0-20.2-0.3-30.4-0.1
				c-5.1,0.1-9.8,1.9-14.1,4.8c-7.4,5-15.1,9.2-23.9,11.2c-12.2,2.8-22.6-0.2-30.6-10.1c-0.4-0.5-0.7-1-1.1-1.5
				c-2.7-4.3-2.1-8,2.4-10.4c3.4-1.8,7-3.4,10.7-4.1c8.7-1.8,16.6-5.1,24.2-9.5c9.1-5.3,18.2-10.7,27.5-15.7
				c11.3-6.1,23.5-8,36.2-7.1c4.3,0.3,8.6,0.6,12.9,0.7c8.2,0.2,16-1.4,23.3-5.3c1.5-0.8,2.3-0.6,3.4,0.8
				c14.3,19.4,28.7,38.7,43.1,58C345.3,264.6,345.6,265.1,346.1,265.9z"/>
			<path class="st3" d="M408,239c-0.4,2.3-1.3,4-3,5.2c-10.6,7.9-21.1,15.8-31.7,23.7c-3.9,2.9-7.4,2.1-10.6-2.2
				c-18.6-25-37.2-50-55.9-75.1c-0.8-1.1-1.7-2.1-2.4-3.2c-3-4.2-2.4-8.1,1.7-11.2c7.4-5.5,14.8-10.9,22.2-16.4c2.7-2,5.3-4,8-5.9
				c4.1-3,7.7-2.5,10.7,1.5c17.6,23.7,35.3,47.4,52.9,71.1c2,2.7,4.1,5.4,6,8.2C406.8,235.9,407.3,237.5,408,239z M319.3,179.5
				c0,4.1,3.3,7.5,7.4,7.6c4.1,0,7.6-3.3,7.6-7.4c0.1-4.1-3.5-7.7-7.5-7.7C322.8,171.9,319.4,175.4,319.3,179.5z M346.5,195.8
				c0-4.2-3.3-7.5-7.5-7.4c-4.1,0-7.5,3.4-7.5,7.5c0,4.1,3.5,7.5,7.7,7.5C343.3,203.3,346.5,200,346.5,195.8z"/>
			<path class="st3" d="M154.4,194.6c-0.8,1.5-1.4,3.2-2.4,4.6c-8.9,12.1-17.9,24.1-26.8,36.1c-10.3,13.8-20.6,27.7-30.9,41.5
				c-0.4,0.5-0.7,1-1.1,1.5c-2.7,3.5-6.3,4-9.8,1.3c-7.3-5.4-14.5-10.8-21.7-16.2c-2.9-2.2-5.8-4.3-8.7-6.5c-4.4-3.3-5-6.6-1.7-11
				c12.4-16.8,24.9-33.5,37.4-50.3c7-9.4,13.9-18.7,20.9-28.1c3.3-4.4,6.6-4.8,11-1.5c10.1,7.5,20.2,15,30.3,22.5
				c1.9,1.4,3.3,3.2,3.1,5.7C154.1,194.4,154.2,194.5,154.4,194.6z M125.2,207.9c0.1-4.2-3.3-7.7-7.5-7.8c-4.2-0.1-7.8,3.4-7.9,7.6
				c0,4.2,3.5,7.8,7.7,7.8C121.7,215.5,125.2,212.1,125.2,207.9z M137.4,191.5c0.1-4.1-3.4-7.7-7.5-7.7c-4.2-0.1-7.7,3.4-7.8,7.7
				c-0.1,4.2,3.5,7.7,7.7,7.7C133.9,199.2,137.4,195.7,137.4,191.5z"/>
			<path class="st3" d="M151.2,345.9c-5.4,0.1-9.2-2.5-11-6.7c-1.8-4.3-0.9-9.2,2.5-12.4c2.1-1.9,4.3-3.7,6.4-5.5
				c7.4-6.2,14.8-12.5,22.3-18.7c6.5-5.3,15.7-2.7,18,5.1c1.4,4.8-0.1,8.7-3.8,11.9c-5.2,4.5-10.5,8.9-15.8,13.3
				c-3.9,3.3-7.8,6.5-11.7,9.9C155.8,344.9,153.1,345.9,151.2,345.9z"/>
			<path class="st3" d="M202.5,317.6c4.9,0,8.4,2.3,9.9,6c1.7,4.3,1,8.4-2.5,11.4c-8.9,7.6-17.9,15.2-26.9,22.6
				c-4.1,3.4-10.3,2.5-13.8-1.5c-3.4-4-3.1-10,0.9-13.7c4.1-3.7,8.4-7.2,12.6-10.7c4.6-3.9,9.2-7.7,13.8-11.6
				C198.4,318.6,200.5,317.7,202.5,317.6z"/>
			<path class="st3" d="M122.9,306.9c0.7-1.2,1.2-2.7,2.2-3.6c5.4-4.7,10.9-9.3,16.4-13.9c1.3-1.1,2.9-1.5,4.7-1
				c5.6,1.6,10.6,7.3,11.4,13.1c0.3,2.1-0.3,3.8-2,5.2c-5.3,4.4-10.6,8.9-15.9,13.4c-1.5,1.3-3.1,1.7-5.1,1.2
				C128.9,319.7,123.4,312.9,122.9,306.9z"/>
			<path class="st3" d="M230.3,348.6c0,1.8-0.7,3.4-2.2,4.6c-6.1,5.1-12.1,10.2-18.2,15.3c-2,1.7-4.3,1.9-6.8,1.1
				c-4.4-1.5-7.8-6.2-8-10.8c-0.1-2,0.6-3.7,2.2-5c6.1-5.1,12.1-10.2,18.2-15.3c1.8-1.5,3.7-1.8,5.9-1.3
				C226.1,338.2,230.3,343.6,230.3,348.6z"/>
		</g>
	</g>
</g>
</svg>
