<?xml version="1.0" encoding="utf-8"?>
<!-- Generator: Adobe Illustrator 23.0.5, SVG Export Plug-In . SVG Version: 6.00 Build 0)  -->
<svg version="1.1" id="Layer_1" xmlns="http://www.w3.org/2000/svg" xmlns:xlink="http://www.w3.org/1999/xlink" x="0px" y="0px"
	 viewBox="0 0 360 360" style="enable-background:new 0 0 360 360;" xml:space="preserve">
<style type="text/css">
	.st0{opacity:0.51;}
	.st1{fill:#009688;}
	.st2{opacity:0.56;}
	.st3{fill:#FFFFFF;}
</style>
<g>
	<g>
		<g>
			<g class="st0">
				<circle class="st1" cx="180" cy="180" r="112.3"/>
			</g>
			<g class="st2">
				<circle class="st1" cx="180" cy="180" r="94.2"/>
			</g>
			<g>
				<circle class="st1" cx="180" cy="180" r="70.4"/>
			</g>
		</g>
		<g>
			<path class="st3" d="M233.4,217.2c0.1,1.4,0.3,2.7,0.4,3.9c0.3,2.5,0.1,5-0.8,7.4c-0.7,1.9-1.9,3.2-3.7,4.1
				c-3.2,1.5-6.5,2.2-10,1.7c-1.4-0.2-1.7,0.2-1.8,1.5c-0.4,4.7-2.2,8.8-5.7,12.1c-3.1,2.9-6.6,3.6-10.5,1.9c-1.1-0.5-2.1-1-3.4-1.6
				c-0.1,1.1-0.2,2.1-0.3,3.1c-0.5,4.6-2.9,7.3-7.4,8.4c-3.5,0.9-7,0.6-10.5-0.1c-1.7-0.3-3.4-0.8-5.4-1.3c0.6-0.5,1-1,1.4-1.3
				c2.1-1.8,4.2-3.6,6.3-5.3c3.3-2.7,4.4-6,3.2-10c-1.6-5.7-5.4-8.9-11.1-10c-0.3,0-0.5-0.1-0.8-0.1c-0.1,0-0.2-0.1-0.4-0.2
				c0.5-4.5-0.7-8.5-4.5-11.4s-8-3.1-12.5-1.2c0.2-6.4-2.2-11.2-8.2-13.5c-6.1-2.4-11,0.4-15.4,4.7c-0.2-0.8-0.4-1.3-0.5-1.8
				c-1.6-5.6-5-9.6-10.5-11.7c-3.1-1.2-5.8-0.7-8.3,1.5c-2.9,2.5-5.9,5-8.8,7.4c-0.4,0.3-0.8,0.6-1.2,1c-4-3.5-8-7.1-12.2-10.7
				c0.9-1.2,1.7-2.4,2.6-3.5c11.8-15.9,23.7-31.8,35.5-47.7c0.9-1.2,1.7-1.5,3-1.4c6.3,0.4,12.6,0.7,19,1.2c6,0.5,11.9,1.7,17.8,3.5
				c-0.2,0.3-0.3,0.5-0.5,0.6c-6,3.4-11.9,7.1-18.1,10.1c-3.5,1.7-7.4,2.6-11.2,3.6c-3.5,0.9-6.9,2-9.8,4.1
				c-4.3,3.1-5.5,7.7-2.8,12.3c3.6,6.1,9,10.1,16,11.7c6.3,1.4,12.4,0.4,18.2-2.1c4.4-1.9,8.7-4.1,12.7-6.7
				c3.6-2.4,7.4-3.3,11.5-3.3c7.5,0,15,0.3,22.5,0.4c2.4,0,4.9-0.2,7.3-0.2c0.7,0,1.5,0,2.1,0.4c7.3,4.9,14.4,10.1,20.2,16.7
				c3.4,3.9,6.6,8,7.8,13.2c0.4,1.6,0.6,3.4,0.3,4.9c-0.6,3.6-4,5.8-7.7,5.1C236,218,234.9,217.6,233.4,217.2z"/>
			<path class="st3" d="M266.7,183.6c-5.7,6.2-11.3,12.4-17.1,18.8c-0.6-1.1-1-1.9-1.5-2.7c-3.7-6.6-8.9-12-14.7-16.8
				c-4.3-3.5-8.9-6.7-13.4-10c-0.4-0.3-1-0.4-1.5-0.3c-4.7,1.3-9.6,1.1-14.4,1.1c-7.5,0-14.9-0.2-22.4-0.1
				c-3.7,0.1-7.2,1.4-10.4,3.5c-5.4,3.6-11.1,6.8-17.6,8.3c-9,2.1-16.6-0.1-22.6-7.5c-0.3-0.4-0.5-0.7-0.8-1.1
				c-2-3.1-1.5-5.9,1.7-7.7c2.5-1.3,5.2-2.5,7.9-3c6.4-1.3,12.2-3.8,17.8-7c6.7-3.9,13.4-7.9,20.3-11.5c8.3-4.5,17.3-5.9,26.7-5.2
				c3.2,0.2,6.3,0.5,9.5,0.5c6,0.1,11.8-1,17.1-3.9c1.1-0.6,1.7-0.5,2.5,0.6c10.5,14.3,21.1,28.5,31.7,42.7
				C266,182.6,266.3,183,266.7,183.6z"/>
			<path class="st3" d="M312.2,163.8c-0.3,1.7-1,2.9-2.2,3.9c-7.8,5.8-15.6,11.7-23.4,17.4c-2.9,2.1-5.4,1.5-7.8-1.6
				c-13.7-18.4-27.4-36.9-41.1-55.3c-0.6-0.8-1.2-1.6-1.8-2.4c-2.2-3.1-1.8-6,1.3-8.3c5.4-4,10.9-8.1,16.4-12.1
				c2-1.5,3.9-2.9,5.9-4.4c3-2.2,5.7-1.8,7.9,1.1c13,17.5,26,34.9,39,52.4c1.5,2,3,3.9,4.4,6C311.4,161.5,311.7,162.7,312.2,163.8z
				 M246.9,119.9c0,3.1,2.4,5.6,5.4,5.6s5.6-2.5,5.6-5.5c0.1-3-2.5-5.7-5.6-5.7C249.4,114.4,246.9,116.9,246.9,119.9z M266.9,131.9
				c0-3.1-2.5-5.5-5.5-5.5s-5.5,2.5-5.6,5.5c0,3.1,2.6,5.6,5.7,5.5C264.6,137.5,266.9,135.1,266.9,131.9z"/>
			<path class="st3" d="M125.4,131.1c-0.6,1.1-1,2.4-1.8,3.4c-6.6,8.9-13.2,17.7-19.7,26.6c-7.6,10.2-15.2,20.4-22.8,30.6
				c-0.3,0.4-0.5,0.7-0.8,1.1c-2,2.6-4.6,2.9-7.2,1c-5.3-4-10.7-7.9-16-11.9c-2.1-1.6-4.3-3.2-6.4-4.8c-3.3-2.4-3.7-4.8-1.2-8.1
				c9.2-12.4,18.4-24.7,27.5-37c5.1-6.9,10.3-13.8,15.4-20.7c2.4-3.2,4.8-3.6,8.1-1.1c7.4,5.5,14.9,11.1,22.3,16.6
				c1.4,1.1,2.4,2.3,2.3,4.2C125.2,130.9,125.3,131,125.4,131.1z M103.9,140.9c0-3.1-2.4-5.7-5.5-5.7c-3.1-0.1-5.8,2.5-5.8,5.6
				s2.6,5.7,5.7,5.7C101.4,146.5,103.9,144,103.9,140.9z M112.9,128.8c0.1-3-2.5-5.7-5.5-5.7c-3.1,0-5.7,2.5-5.8,5.6
				c-0.1,3.1,2.6,5.7,5.7,5.7C110.3,134.4,112.9,131.9,112.9,128.8z"/>
			<path class="st3" d="M123.1,242.5c-4,0.1-6.8-1.9-8.1-4.9c-1.3-3.1-0.7-6.8,1.8-9.1c1.5-1.4,3.2-2.7,4.7-4
				c5.5-4.6,10.9-9.2,16.4-13.8c4.8-3.9,11.6-2,13.2,3.8c1,3.5,0,6.4-2.8,8.8c-3.9,3.3-7.7,6.5-11.6,9.8c-2.9,2.4-5.8,4.8-8.6,7.3
				C126.5,241.8,124.5,242.5,123.1,242.5z"/>
			<path class="st3" d="M160.8,221.7c3.6,0,6.2,1.7,7.3,4.4c1.3,3.2,0.7,6.2-1.8,8.4c-6.6,5.6-13.2,11.2-19.8,16.7
				c-3,2.5-7.6,1.9-10.1-1.1s-2.3-7.4,0.6-10.1c3-2.7,6.2-5.3,9.3-7.9c3.4-2.9,6.8-5.7,10.2-8.6
				C157.8,222.4,159.4,221.7,160.8,221.7z"/>
			<path class="st3" d="M102.2,213.8c0.5-0.9,0.9-2,1.7-2.6c4-3.5,8-6.9,12.1-10.2c1-0.8,2.1-1.1,3.4-0.7c4.1,1.2,7.8,5.4,8.4,9.6
				c0.2,1.6-0.2,2.8-1.5,3.8c-3.9,3.3-7.8,6.6-11.7,9.9c-1.1,1-2.3,1.3-3.8,0.9C106.6,223.2,102.6,218.2,102.2,213.8z"/>
			<path class="st3" d="M181.3,244.5c0,1.3-0.5,2.5-1.6,3.4c-4.5,3.8-8.9,7.5-13.4,11.3c-1.5,1.2-3.2,1.4-5,0.8
				c-3.2-1.1-5.8-4.5-5.9-7.9c-0.1-1.5,0.4-2.7,1.6-3.7c4.5-3.7,8.9-7.5,13.4-11.3c1.3-1.1,2.7-1.3,4.3-1
				C178.2,236.9,181.3,240.8,181.3,244.5z"/>
		</g>
	</g>
</g>
</svg>
